When a young doctor suspects she may not be alone in her new Brooklyn loft, she learns that her landlord has formed a frightening obsession with her..
 
http://www.imdb.com/title/tt1334102/

Subs: Dutch(srt).


Dr. Juliet Dermer (Hilary Swank) betrekt een nieuw huurhuis in Brooklyn. Al snel voelt ze echter dat ze wel érg in de gaten wordt gehouden door haar huisbaas, Max (Jeffrey Dean Morgan). Wanneer duidelijk wordt dat Max een griezelige obsessie voor Juliet heeft, begint een gevaarlijk kat- en muisspel.
 
http://www.moviemeter.nl/film/61271

Ondertitels: Nederlands (srt)


General
Complete name                    : The Resident-AC3-XviD-BRRip 2011 TBS\The Resident-AC3-XviD-BRRip 2011 TBS.avi
Format                           : AVI
Format/Info                      : Audio Video Interleave
File size                        : 1.24 GiB
Duration                         : 1h 31mn
Overall bit rate                 : 1 951 Kbps
Writing application              : VirtualDubMod 1.5.4.1 (build 2178/release)
Writing library                  : VirtualDubMod build 2178/release
Source                           : The Resident (2011) 720p BluRay x264 DTS - TeamTNT

Video
ID                               : 0
Format                           : MPEG-4 Visual
Format profile                   : Simple@L3
Format settings, BVOP            : No
Format settings, QPel            : No
Format settings, GMC             : No warppoints
Format settings, Matrix          : Default (H.263)
Codec ID                         : XVID
Codec ID/Hint                    : XviD
Duration                         : 1h 31mn
Bit rate                         : 1 493 Kbps
Width                            : 720 pixels
Height                           : 304 pixels
Display aspect ratio             : 2.35:1
Frame rate                       : 23.976 fps
Resolution                       : 8 bits
Colorimetry                      : 4:2:0
Scan type                        : Progressive
Bits/(Pixel*Frame)               : 0.285
Stream size                      : 975 MiB (77%)
Writing library                  : XviD 1.1.2 (UTC 2006-11-01)

Audio
ID                               : 1
Format                           : AC-3
Format/Info                      : Audio Coding 3
Codec ID                         : 2000
Duration                         : 1h 31mn
Bit rate mode                    : Constant
Bit rate                         : 448 Kbps
Channel(s)                       : 6 channels
Channel positions                : Front: L C R, Surround: L R, LFE
Sampling rate                    : 48.0 KHz
Stream size                      : 293 MiB (23%)
Alignment                        : Split accross interleaves
Interleave, duration             : 42 ms (1.00 video frame)
Interleave, preload duration     : 500 ms

Thanks to Simply Releases Toppers for the Dutch subs. Awesome job peeps!

Blackbeard  TBS.